<?xml version="1.0" encoding="utf-8"?>
<!-- Generator: Adobe Illustrator 19.1.0, SVG Export Plug-In . SVG Version: 6.00 Build 0)  -->
<svg version="1.1" id="Layer_1" xmlns="http://www.w3.org/2000/svg" xmlns:xlink="http://www.w3.org/1999/xlink" x="0px" y="0px"
	 viewBox="0 0 600 600" style="enable-background:new 0 0 600 600;" xml:space="preserve">
<style type="text/css">
	.st0{fill:#FFFFFF;}
	.st1{fill:#00ABAF;}
	.st2{fill:#004587;}
	.st3{font-family:'Signika-Light';}
	.st4{font-size:127.4184px;}
	.st5{font-size:72.4178px;}
	.st6{font-size:196.4453px;}
	.st7{font-size:111.649px;}
</style>
<g>
	<g>
		<g>
			<g>
				<path class="st0" d="M300,300L172.3,180.9c34.2-36.7,77.5-55.5,127.7-55.5V300z"/>
			</g>
		</g>
		<g>
			<g>
				<path class="st1" d="M300,300V125.4c96.4,0,174.6,78.2,174.6,174.6S396.4,474.6,300,474.6S125.4,396.4,125.4,300
					c0-46.3,15.3-85.2,46.9-119.1L300,300z"/>
			</g>
		</g>
	</g>
	<g>
		<g>
		</g>
		<g>
		</g>
	</g>
</g>
<circle class="st0" cx="300" cy="300" r="152.2"/>
<text transform="matrix(1 0 0 1 211.6191 326.8867)"><tspan x="0" y="0" class="st2 st3 st4">87</tspan><tspan x="135.1" y="0" class="st2 st3 st5">%</tspan></text>
<g>
	<g>
		<g>
			<g>
				<path class="st0" d="M300,300L103.2,116.5C155.9,59.9,222.7,30.9,300,30.9V300z"/>
			</g>
		</g>
		<g>
			<g>
				<path class="st1" d="M300,300V30.9c148.6,0,269.1,120.5,269.1,269.1S448.6,569.1,300,569.1S30.9,448.6,30.9,300
					c0-71.3,23.6-131.4,72.3-183.5L300,300z"/>
			</g>
		</g>
	</g>
	<g>
		<g>
		</g>
		<g>
		</g>
	</g>
</g>
<circle class="st0" cx="300" cy="300" r="234.6"/>
<text transform="matrix(1 0 0 1 163.7395 341.4521)"><tspan x="0" y="0" class="st2 st3 st6">87</tspan><tspan x="208.2" y="0" class="st2 st3 st7">%</tspan></text>
</svg>
